<svg xmlns="http://www.w3.org/2000/svg" xmlns:xlink="http://www.w3.org/1999/xlink" width="500" zoomAndPan="magnify" viewBox="0 0 375 374.999991" height="500" preserveAspectRatio="xMidYMid meet" version="1.0"><defs><g/><clipPath id="id1"><path d="M 52.035156 16 L 313 16 L 313 301.5 L 52.035156 301.5 Z M 52.035156 16 " clip-rule="nonzero"/></clipPath></defs><g clip-path="url(#id1)"><path fill="#000000" d="M 157.511719 263.648438 C 152.945312 264.28125 148.242188 264.621094 143.691406 264.863281 C 139.160156 265.105469 134.597656 265.230469 130.0625 265.160156 C 127.128906 265.113281 123.332031 265.054688 120.480469 264.382812 C 118.703125 263.988281 116.507812 263.769531 114.683594 263.519531 C 113.621094 263.375 112.402344 263.175781 111.214844 263.019531 C 111.183594 264.632812 111.289062 266.71875 111.308594 267.578125 C 111.398438 271.53125 111.441406 275.480469 111.113281 279.425781 C 110.773438 283.558594 110.015625 287.996094 108.203125 291.757812 C 107.414062 293.390625 106.464844 294.964844 104.726562 295.722656 C 103.171875 296.398438 101.410156 296.171875 99.757812 296.171875 C 96.8125 296.171875 93.871094 296.171875 90.925781 296.171875 C 86.050781 296.171875 77.664062 296.828125 73.21875 295.425781 C 71.003906 294.726562 67.363281 294.15625 65.648438 292.667969 C 62.574219 289.996094 63.839844 285.421875 65.90625 282.566406 C 69.214844 277.988281 68.792969 276.769531 67.613281 271.390625 C 66.589844 266.722656 65.171875 262.144531 63.964844 257.519531 C 62.699219 252.683594 61.855469 247.761719 60.933594 242.851562 C 59.078125 232.917969 56.523438 223.160156 55.191406 213.121094 C 54.21875 205.800781 53.738281 198.265625 53.335938 190.890625 C 52.8125 181.425781 52.5 171.941406 52.308594 162.464844 C 52.132812 153.613281 52.066406 144.753906 52.15625 135.898438 C 52.226562 128.714844 52.371094 121.476562 52.828125 114.308594 C 53.503906 103.6875 54.796875 93.027344 56.570312 82.535156 C 58.195312 72.929688 60.25 63.304688 62.953125 53.941406 C 65.207031 46.128906 68.050781 37.890625 71.964844 30.746094 C 73.128906 28.625 78.285156 20.089844 79.90625 19.058594 C 80.546875 18.652344 81.253906 18.390625 82.007812 18.332031 C 85.496094 18.050781 87.246094 21.765625 88.183594 24.503906 C 88.917969 26.65625 89.96875 28.675781 90.675781 30.839844 C 91.210938 32.476562 91.90625 34.171875 92.515625 35.789062 C 93.714844 38.980469 94.925781 42.164062 96.136719 45.351562 C 97.671875 49.386719 99.179688 53.46875 100.746094 57.5 C 104.550781 55.609375 108.304688 53.59375 112.339844 52.226562 C 129.578125 46.386719 141.660156 45.058594 159.386719 50.398438 C 164.542969 51.949219 169.46875 53.578125 174.230469 56.113281 C 176.4375 57.289062 178.570312 58.480469 180.757812 59.625 C 183.652344 48.394531 187.203125 37.773438 193.085938 27.585938 C 195.164062 23.992188 199.101562 15.929688 203.96875 16.335938 C 207.042969 16.59375 209.300781 20.8125 210.574219 23.242188 C 211.632812 25.261719 212.585938 27.367188 213.457031 29.472656 C 215.785156 35.113281 217.402344 41.253906 218.683594 47.210938 C 220.15625 54.082031 221.230469 61.070312 222.0625 68.042969 C 223.601562 80.9375 224.476562 94.433594 224.296875 107.421875 C 224.234375 112.066406 224.742188 116.703125 224.71875 121.351562 C 224.695312 126.195312 224.546875 131.050781 224.71875 135.890625 C 224.882812 140.671875 224.933594 145.457031 225.007812 150.238281 C 225.042969 152.425781 224.816406 154.832031 224.691406 157.027344 C 224.617188 158.339844 224.542969 159.65625 224.492188 160.96875 C 224.867188 160.90625 225.261719 160.835938 225.710938 160.78125 C 227.253906 160.589844 228.882812 160.722656 230.441406 160.722656 C 232.558594 160.722656 234.875 160.519531 237.082031 160.664062 C 238.84375 153.382812 240.269531 150.945312 245.828125 144.425781 C 254.28125 134.515625 265.90625 128.382812 279.144531 130.757812 C 290.59375 132.808594 300.273438 140.753906 306.144531 150.570312 C 312.742188 161.605469 314.582031 174.757812 311.058594 187.144531 C 308.15625 197.367188 297.703125 211.125 287.609375 216.246094 C 288.347656 222.777344 287.953125 233.621094 285.851562 238.59375 C 285.25 240.011719 284.832031 241.625 284.394531 243.105469 C 283.953125 244.601562 283.144531 246.269531 282.488281 247.6875 C 281.875 249.011719 281 250.621094 280.511719 251.964844 C 280.023438 253.707031 279.300781 255.195312 278.449219 256.785156 C 276.957031 259.566406 275.832031 262.535156 274.40625 265.355469 C 271.78125 270.554688 272.21875 280.878906 272.164062 286.738281 C 272.15625 287.6875 272.722656 289.691406 272.914062 290.703125 C 273.367188 293.121094 273.664062 296.035156 271.949219 298.054688 C 271.019531 299.144531 269.746094 299.683594 268.359375 299.796875 C 266.296875 300.339844 263.683594 300.578125 261.605469 300.773438 C 258.132812 301.09375 254.621094 301.273438 251.132812 301.320312 C 246.476562 301.382812 236.859375 301.335938 232.949219 298.6875 L 232.324219 298.265625 L 232.003906 297.585938 C 231.320312 296.128906 231.488281 289.6875 231.492188 287.902344 C 231.496094 285.152344 231.546875 282.402344 231.546875 279.652344 C 231.546875 277.253906 230.675781 268.421875 229.648438 264.515625 C 228.035156 265.019531 226.351562 265.511719 224.8125 265.722656 C 222.605469 266.023438 219.976562 265.878906 217.738281 265.886719 C 215.164062 265.898438 212.207031 265.875 209.671875 265.484375 C 208.578125 265.3125 207.480469 265.152344 206.386719 265 C 205.851562 264.929688 205.179688 264.820312 204.542969 264.746094 C 204.078125 265.738281 203.757812 267.335938 203.585938 268.015625 C 202.867188 270.84375 202.820312 281.726562 203.609375 284.511719 C 204.105469 286.261719 204.660156 288.304688 205.351562 289.96875 C 206.738281 293.308594 206.648438 297.585938 202.621094 299.03125 C 197.894531 300.734375 188.921875 300.792969 183.867188 300.707031 C 179.511719 300.632812 174.964844 300.386719 170.660156 299.703125 C 167.972656 299.277344 163.15625 298.476562 162.074219 295.542969 L 161.980469 295.289062 L 161.941406 295.023438 C 161.472656 292.066406 161 289.929688 160.113281 287.050781 C 158.222656 280.910156 157.335938 274.152344 157.332031 267.730469 C 157.332031 266.828125 157.472656 265.140625 157.511719 263.648438 Z M 157.511719 263.648438 " fill-opacity="1" fill-rule="evenodd"/></g><path fill="#fff4e4" d="M 131.433594 145.964844 C 127.921875 145.972656 123.816406 144.269531 120.921875 141.527344 C 117.097656 137.898438 114.710938 131.324219 120.347656 128.148438 C 122.84375 126.742188 124.855469 126.570312 127.671875 126.589844 C 134.539062 126.640625 145.648438 126.429688 146.78125 132.136719 C 148.535156 140.949219 138.636719 146.082031 134.347656 146.1875 C 134.171875 146.570312 133.90625 157.753906 133.792969 162.917969 L 130.707031 162.917969 C 130.929688 157.75 130.773438 148.292969 131.433594 145.964844 Z M 175.8125 107.085938 C 177.582031 106.820312 179.683594 107.023438 180.855469 108.578125 C 181.75 109.765625 183.132812 111.566406 183.246094 113.050781 C 183.40625 115.222656 183.367188 117.007812 181.972656 118.769531 C 181.308594 119.605469 178.910156 121.507812 177.867188 121.453125 C 165.523438 120.785156 168.917969 108.109375 175.8125 107.085938 Z M 95.476562 106.621094 C 99.597656 105.953125 102.597656 109.578125 102.15625 113.347656 C 100.71875 125.730469 89.480469 119.867188 89.222656 113.558594 C 89.039062 109.070312 91.160156 107.324219 95.476562 106.621094 Z M 96.882812 63.082031 C 94.753906 55.253906 89.34375 41.234375 85.859375 33.386719 C 85.152344 31.796875 83.824219 24.5625 81.878906 25.386719 C 80.90625 25.800781 77.078125 31.804688 76.257812 33.109375 C 67.679688 46.761719 60.058594 92.769531 58.796875 110.441406 C 57.023438 135.324219 58.046875 164.875 59.113281 190.183594 C 60.082031 213.132812 60.878906 216.265625 65.542969 238.128906 C 67.179688 245.789062 68.300781 252.816406 70.367188 260.472656 C 72.023438 266.621094 75.332031 276.828125 72.152344 282.835938 C 70.667969 285.640625 66.6875 288.351562 72.457031 289.929688 C 76.804688 291.117188 80.703125 290.902344 85.117188 290.875 C 89.714844 290.84375 94.25 290.972656 98.832031 291.027344 C 104.417969 291.089844 104.148438 288.296875 105.101562 283.765625 C 106.886719 275.242188 106.355469 268.160156 106.355469 259.503906 C 104.621094 259.363281 97.25 257.832031 96.582031 256.230469 C 95.589844 253.835938 99.292969 255.375 100.160156 255.667969 C 110.625 259.195312 142.886719 261.441406 152.742188 258.902344 C 155.257812 258.257812 173.746094 254.570312 174.179688 255.132812 C 175.320312 257.761719 163.886719 257.359375 162.125 259.871094 C 162.152344 261.242188 162.472656 262.683594 162.472656 264.375 C 162.464844 279.191406 163.289062 281.683594 166.953125 291.972656 C 167.21875 293.703125 171.90625 294.691406 177.703125 295.136719 C 187.269531 295.867188 199.859375 295.117188 200.558594 293.75 C 200.707031 292.835938 198.867188 287.824219 198.476562 286.503906 C 197.84375 284.375 197.515625 280.3125 197.527344 278.0625 C 197.5625 270.917969 198.402344 265.128906 201.234375 258.984375 C 203.992188 258.015625 202.882812 259.683594 205.890625 259.964844 C 207.78125 260.140625 210.035156 260.488281 211.894531 260.46875 C 215.859375 260.429688 219.898438 261.1875 224.007812 260.394531 C 228.304688 259.5625 241.570312 254.25 245.464844 256.730469 C 245.902344 258.148438 244.234375 258.027344 243.316406 258.175781 C 242.980469 258.230469 233.96875 259.929688 233.648438 260.175781 C 233.636719 260.765625 234.527344 262.632812 234.796875 263.351562 C 235.5625 265.414062 236.699219 276.898438 236.6875 278.765625 C 236.671875 281.527344 236.871094 284.910156 236.660156 287.578125 C 236.519531 289.347656 236.050781 293.738281 236.539062 295.105469 C 243.925781 297.296875 261.488281 296.0625 267.714844 294.660156 C 267.859375 292.253906 266.886719 289.285156 266.933594 286.355469 C 267.066406 277.933594 266.273438 269.582031 270.226562 261.878906 C 271.347656 259.699219 272.089844 257.582031 273.160156 255.453125 C 274.390625 253.003906 274.917969 251.410156 275.945312 249.050781 C 276.730469 247.25 277.996094 244.242188 278.867188 242.621094 C 283.894531 233.230469 282.71875 215.527344 280.363281 205.765625 C 279.160156 200.777344 278.390625 196.261719 275.949219 191.636719 C 274.753906 189.378906 274.382812 187.6875 272.867188 185.355469 C 272.109375 184.191406 269.660156 180.449219 270.339844 179.234375 L 272.046875 179.089844 C 272.710938 179.8125 275.726562 185.164062 276.417969 186.394531 C 277.644531 188.582031 278.894531 191.914062 279.992188 194.289062 C 281.074219 196.621094 282.054688 200.601562 282.613281 203.15625 C 284.394531 211.269531 281.441406 216.679688 291.839844 206.878906 C 297.339844 201.699219 305.679688 189.335938 306.921875 182.222656 C 308.453125 173.453125 307.113281 167.5 304.285156 159.238281 C 296.671875 137.019531 270.609375 128.851562 253.136719 144.195312 C 243.46875 152.683594 238.796875 167.769531 241.304688 180.1875 C 241.714844 182.214844 242.441406 183.773438 243.582031 184.515625 C 247.519531 181.769531 252.039062 167.558594 266.855469 165.628906 C 281.59375 163.535156 286.984375 178.257812 281.863281 174.421875 C 281.214844 173.9375 281.65625 173.246094 280.101562 171.933594 C 276.25 168.675781 271.875 167.488281 266.871094 168.324219 C 254.511719 170.386719 250.152344 181.011719 243.703125 187.566406 C 243.105469 187.4375 243.269531 187.296875 242.785156 187.234375 C 240.691406 186.917969 239.171875 181.699219 238.722656 176.480469 C 238.566406 174.652344 238.386719 171.976562 238.273438 170.132812 C 238.15625 168.199219 238.4375 166.933594 238.152344 166.304688 C 236.824219 165.449219 223.421875 165.34375 221.746094 165.976562 C 220.421875 168.703125 222.769531 180.511719 223.445312 183.917969 C 223.984375 186.652344 225.703125 192.566406 227.550781 194.804688 C 231.425781 199.5 226.691406 201.433594 223.476562 192.367188 C 221.441406 186.628906 218.925781 177.328125 219.007812 171.289062 C 219.066406 166.921875 219.027344 163.421875 219.386719 159.035156 C 219.722656 154.886719 219.71875 150.554688 219.71875 146.390625 C 219.71875 142.210938 219.371094 137.925781 219.4375 133.863281 C 219.507812 129.589844 219.433594 125.257812 219.4375 120.976562 C 219.441406 118.921875 219.535156 116.640625 219.445312 114.617188 C 219.355469 112.554688 218.960938 111.023438 219.003906 108.808594 C 219.160156 100.449219 219.015625 92.152344 218.351562 83.816406 C 217.734375 76.105469 216.511719 68.597656 215.632812 60.945312 C 214.808594 53.738281 214.136719 46.203125 211.683594 39.285156 C 209.375 32.773438 207.839844 27.449219 203.632812 21.789062 C 199.917969 24.261719 194.601562 33.699219 191.128906 43.464844 C 187.8125 52.785156 186.277344 62.246094 185.148438 66.417969 C 186.109375 67.441406 191.589844 69.847656 191.0625 71.921875 C 189.78125 73.300781 187.457031 70.285156 185.917969 69.289062 C 173.566406 61.277344 171.070312 59.5 157.003906 54.960938 C 141.757812 50.039062 126.808594 51.886719 112.265625 57.589844 C 110.722656 58.195312 101.476562 62.542969 100.464844 63.257812 C 98.777344 64.457031 99.972656 63.828125 98.09375 64.585938 C 97.496094 64.824219 96.1875 66 95.539062 66.464844 C 94.457031 67.230469 91.480469 70.046875 90.398438 69.261719 C 89.457031 67.40625 95.523438 64.222656 96.882812 63.082031 Z M 96.882812 63.082031 " fill-opacity="1" fill-rule="evenodd"/><path fill="#000000" d="M 121.308594 129.984375 C 118.277344 131.433594 118.496094 134.492188 120.0625 137.046875 C 121.492188 139.378906 123.070312 140.515625 125.214844 142.136719 C 130.429688 146.082031 139.527344 143.054688 143.101562 138.523438 C 144.070312 137.292969 144.191406 136.117188 144.535156 134.664062 C 145.167969 131.964844 143.054688 129.410156 139.667969 129.40625 C 133.964844 129.402344 126.230469 127.625 121.308594 129.984375 Z M 121.308594 129.984375 " fill-opacity="1" fill-rule="evenodd"/><path fill="#000000" d="M 84.300781 135.945312 C 81.523438 153.386719 88.949219 167.171875 98.027344 175.839844 C 102.296875 179.917969 108.914062 184.832031 114.742188 185.714844 C 114.09375 188.011719 114.082031 192.175781 114.1875 194.519531 C 114.660156 205.257812 120.777344 210.054688 128.074219 210.453125 C 136.769531 210.925781 141.175781 205.980469 142.167969 196.988281 C 142.332031 195.503906 142.925781 189.613281 142.816406 188.433594 C 153.679688 183.96875 186.777344 167.210938 186.101562 141.636719 C 164.171875 163.328125 108.152344 169.890625 84.300781 135.945312 Z M 84.300781 135.945312 " fill-opacity="1" fill-rule="evenodd"/><path fill="#efc5c5" d="M 147.886719 181.644531 C 161.234375 176.640625 177.234375 163.488281 181.253906 152.140625 C 181.597656 151.171875 181.9375 150.191406 182.300781 149.226562 C 181.457031 149.71875 180.90625 150.273438 180.019531 150.726562 C 179.21875 151.136719 178.410156 151.671875 177.585938 152.105469 C 143.195312 170.351562 101.410156 166.128906 86.296875 141.710938 C 86.066406 147.246094 87.371094 154.210938 91.761719 162.757812 C 96.5 171.984375 109.992188 180.863281 115.582031 181.960938 C 119.472656 172.609375 143.101562 170.101562 147.886719 181.644531 Z M 147.886719 181.644531 " fill-opacity="1" fill-rule="evenodd"/><path fill="#f48c8c" d="M 128.230469 177.433594 C 126.816406 177.578125 124.996094 178.15625 123.710938 178.761719 C 119.125 180.921875 117.464844 186.0625 117.503906 190.707031 C 117.566406 198.226562 118.53125 205.171875 126.894531 206.597656 C 136.011719 208.152344 137.691406 202.089844 138.171875 195.113281 C 138.300781 193.261719 138.277344 191.402344 138.339844 189.550781 C 138.398438 187.707031 138.214844 185.886719 138.113281 184.050781 C 138.066406 183.191406 138.054688 182.375 138.363281 181.546875 C 138.664062 180.738281 139.179688 180.492188 139.929688 180.828125 C 141.050781 181.332031 141.421875 183.824219 141.851562 184.851562 C 142.34375 184.855469 144.371094 183.609375 144.949219 183.257812 C 144.363281 178.046875 138.683594 177.132812 134.363281 177.074219 C 133.554688 177.0625 132.617188 177.566406 131.886719 177.96875 C 129.03125 179.535156 127.6875 183.589844 127.054688 186.570312 C 126.875 187.421875 127.164062 188.828125 126.34375 189.214844 C 125.917969 189.421875 125.390625 189.316406 125.101562 188.929688 C 124.703125 188.390625 124.933594 185.066406 125.027344 184.296875 C 125.140625 183.34375 125.390625 182.519531 125.734375 181.628906 C 126.015625 180.90625 126.375 179.972656 126.78125 179.324219 C 127.238281 178.585938 127.84375 178.0625 128.230469 177.433594 Z M 128.230469 177.433594 " fill-opacity="1" fill-rule="evenodd"/><g fill="#f48c8c" fill-opacity="1"><g transform="translate(105.270591, 335.161117)"><g><path d="M 2.636719 -0.875 L 3.03125 -0.179688 L 3.6875 0.242188 L 4.398438 0.238281 L 5.816406 0.375 L 6.5625 0.339844 L 8.050781 0.441406 L 8.816406 0.0507812 L 9.132812 -0.609375 L 9.234375 -1.28125 L 9.199219 -2.066406 L 9.488281 -8.34375 L 9.84375 -9.074219 L 10.609375 -9.503906 L 14.796875 -9.34375 L 15.539062 -9.203125 L 16.175781 -9.175781 L 16.832031 -8.753906 L 17.15625 -8.0625 L 16.832031 -0.21875 L 17.195312 0.367188 L 18.203125 0.875 L 20.046875 0.960938 L 20.761719 0.921875 L 22.210938 1.097656 L 22.90625 0.664062 L 23.359375 0.0820312 L 23.4375 -3.148438 L 23.597656 -4.28125 L 23.515625 -4.851562 L 24.375 -22.664062 L 24.089844 -23.425781 L 23.390625 -23.742188 L 19.3125 -23.964844 L 18.273438 -23.765625 L 17.878906 -22.929688 L 17.78125 -21.582031 L 17.824219 -20.976562 L 17.683594 -19.523438 L 17.761719 -18.84375 L 17.597656 -16.078125 L 17.175781 -15.386719 L 16.445312 -15.03125 L 15.777344 -15.167969 L 14.386719 -15.089844 L 13.644531 -15.195312 L 13.003906 -15.152344 L 10.910156 -15.285156 L 10.25 -15.636719 L 9.929688 -16.328125 L 9.929688 -17.109375 L 9.964844 -17.855469 L 9.957031 -18.496094 L 10.121094 -21.261719 L 10.226562 -22.039062 L 10.214844 -23.355469 L 9.929688 -24.042969 L 9.203125 -24.46875 L 8.417969 -24.433594 L 4.90625 -24.664062 L 4.109375 -24.347656 L 3.722656 -23.652344 L 3.617188 -22.875 L 3.558594 -20.105469 L 3.457031 -19.398438 L 3.53125 -17.9375 L 3.398438 -16.59375 L 3.394531 -15.738281 L 3.289062 -15.03125 L 2.800781 -4.421875 L 2.878906 -3.777344 Z M 2.636719 -0.875 "/></g></g></g><g fill="#f48c8c" fill-opacity="1"><g transform="translate(135.332335, 336.480486)"><g><path d="M 9.265625 0.324219 L 11.648438 0.316406 L 12.6875 -0.0117188 L 13.070312 -0.996094 L 13.226562 -2.839844 L 13.15625 -4.191406 L 13.246094 -4.933594 L 13.25 -6.355469 L 13.339844 -6.992188 L 13.253906 -7.777344 L 13.480469 -13.492188 L 13.394531 -14.242188 L 13.582031 -17.328125 L 13.894531 -18.386719 L 14.582031 -18.792969 L 15.96875 -18.828125 L 17.277344 -18.613281 L 18.027344 -18.699219 L 18.664062 -18.648438 L 19.28125 -19.019531 L 19.726562 -19.789062 L 19.855469 -23.164062 L 19.484375 -23.882812 L 18.820312 -24.363281 L 16.617188 -24.421875 L 15.945312 -24.511719 L 15.199219 -24.425781 L 14.523438 -24.515625 L 11.644531 -24.453125 L 10.9375 -24.613281 L 10.265625 -24.667969 L 9.515625 -24.582031 L 8.738281 -24.671875 L 8.09375 -24.546875 L 6 -24.710938 L 4.898438 -24.636719 L 2.414062 -24.84375 L 1.730469 -24.507812 L 1.285156 -23.703125 L 1.300781 -22.992188 L 1.179688 -21.21875 L 1.222656 -20.117188 L 1.523438 -19.46875 L 2.152344 -19.09375 L 2.867188 -19.148438 L 6.238281 -18.984375 L 6.902344 -18.609375 L 7.273438 -17.890625 L 7.171875 -16.753906 L 7.214844 -15.757812 L 7.160156 -14.980469 L 7.175781 -14.269531 L 7.078125 -13.277344 L 7.039062 -7.980469 L 6.949219 -7.273438 L 6.835938 -4.398438 L 6.886719 -3.652344 L 6.796875 -1.59375 L 6.707031 -0.917969 L 7.144531 -0.125 L 8.167969 0.257812 Z M 9.265625 0.324219 "/></g></g></g><g fill="#f48c8c" fill-opacity="1"><g transform="translate(159.245479, 337.095735)"><g><path d="M 9.269531 0.167969 L 11.652344 0.121094 L 12.683594 -0.222656 L 13.050781 -1.214844 L 13.175781 -3.0625 L 13.082031 -4.410156 L 13.160156 -5.15625 L 13.140625 -6.578125 L 13.21875 -7.214844 L 13.121094 -8 L 13.25 -13.71875 L 13.152344 -14.464844 L 13.289062 -17.554688 L 13.585938 -18.617188 L 14.265625 -19.035156 L 15.652344 -19.09375 L 16.964844 -18.902344 L 17.710938 -19 L 18.347656 -18.957031 L 18.957031 -19.34375 L 19.390625 -20.121094 L 19.460938 -23.492188 L 19.078125 -24.207031 L 18.410156 -24.675781 L 16.207031 -24.699219 L 15.53125 -24.777344 L 14.785156 -24.679688 L 14.109375 -24.757812 L 11.230469 -24.644531 L 10.523438 -24.792969 L 9.847656 -24.835938 L 9.101562 -24.738281 L 8.320312 -24.816406 L 7.679688 -24.679688 L 5.585938 -24.808594 L 4.484375 -24.714844 L 2 -24.882812 L 1.320312 -24.535156 L 0.886719 -23.722656 L 0.914062 -23.011719 L 0.824219 -21.234375 L 0.882812 -20.132812 L 1.195312 -19.492188 L 1.832031 -19.128906 L 2.542969 -19.191406 L 5.917969 -19.085938 L 6.589844 -18.722656 L 6.972656 -18.011719 L 6.890625 -16.875 L 6.949219 -15.878906 L 6.90625 -15.097656 L 6.933594 -14.386719 L 6.851562 -13.394531 L 6.90625 -8.097656 L 6.828125 -7.390625 L 6.761719 -4.511719 L 6.824219 -3.765625 L 6.765625 -1.707031 L 6.6875 -1.03125 L 7.144531 -0.246094 L 8.167969 0.121094 Z M 9.269531 0.167969 "/></g></g></g><g fill="#f48c8c" fill-opacity="1"><g transform="translate(183.179983, 337.3227)"><g><path d="M 4.761719 0.0703125 L 6.5 -0.015625 L 7.140625 0.015625 L 7.957031 -0.0625 L 8.699219 -0.351562 L 9.015625 -1.097656 L 8.972656 -1.808594 L 9.003906 -2.589844 L 8.921875 -3.90625 L 8.988281 -4.582031 L 8.945312 -5.398438 L 9.261719 -6.039062 L 10.074219 -6.4375 L 10.855469 -6.511719 L 11.601562 -6.375 L 15.257812 -6.6875 L 18.625 -8.066406 L 19.152344 -8.496094 L 19.644531 -9.066406 L 20.105469 -9.53125 L 20.5625 -10.070312 L 21.300781 -11.210938 L 21.890625 -12.601562 L 21.992188 -13.382812 L 22.203125 -13.953125 L 22.25 -16.867188 L 22.105469 -17.46875 L 21.992188 -18.25 L 21.554688 -19.5625 L 20.871094 -20.765625 L 20.007812 -21.929688 L 18.398438 -23.304688 L 17.222656 -24.074219 L 15.796875 -24.492188 L 15.191406 -24.734375 L 14.480469 -24.730469 L 13.769531 -24.972656 L 12.703125 -25 L 11.566406 -24.957031 L 10.785156 -24.84375 L 8.617188 -24.863281 L 7.90625 -24.960938 L 5.707031 -24.804688 L 4.925781 -24.832031 L 4.285156 -24.933594 L 3.539062 -24.789062 L 2.796875 -24.390625 L 2.480469 -23.820312 L 2.550781 -19.523438 L 2.417969 -18.101562 L 2.496094 -17.425781 L 2.53125 -8.226562 L 2.605469 -7.550781 L 2.621094 -0.980469 L 3.015625 -0.308594 L 4.121094 0.0390625 Z M 9.996094 -12.121094 L 9.28125 -12.539062 L 8.957031 -13.140625 L 8.828125 -16.019531 L 8.894531 -16.765625 L 8.882812 -18.222656 L 9.234375 -18.898438 L 9.976562 -19.257812 L 13.671875 -19.179688 L 14.382812 -18.867188 L 14.957031 -18.480469 L 15.421875 -18.023438 L 15.78125 -17.316406 L 15.894531 -16.675781 L 15.972656 -15.683594 L 15.90625 -14.722656 L 15.664062 -14.082031 L 15.347656 -13.511719 L 14.890625 -12.9375 L 14.328125 -12.507812 L 13.757812 -12.324219 L 12.660156 -12.175781 L 10.847656 -12.195312 Z M 9.996094 -12.121094 "/></g></g></g><g fill="#f48c8c" fill-opacity="1"><g transform="translate(210.649774, 337.077339)"><g><path d="M 12.226562 0.128906 L 13.289062 -0.0078125 L 13.964844 0.0078125 L 16.714844 -0.777344 L 17.976562 -1.488281 L 19.125 -2.300781 L 20.09375 -3.320312 L 20.875 -4.585938 L 21.070312 -5.304688 L 21.410156 -5.917969 L 21.6875 -7.417969 L 21.816406 -9.125 L 21.554688 -18.714844 L 21.464844 -19.386719 L 21.515625 -20.167969 L 21.429688 -20.734375 L 21.347656 -23.683594 L 21.4375 -24.394531 L 20.953125 -25.128906 L 20.164062 -25.355469 L 17.929688 -25.222656 L 16.4375 -25.289062 L 15.699219 -24.914062 L 15.332031 -24.121094 L 15.785156 -10.132812 L 15.597656 -7.925781 L 15.398438 -7.386719 L 15.027344 -6.664062 L 14.433594 -6.222656 L 13.203125 -5.726562 L 11.074219 -5.667969 L 10.253906 -5.824219 L 9.640625 -6.164062 L 9.058594 -6.574219 L 8.617188 -7.128906 L 8.386719 -7.796875 L 8.117188 -9.851562 L 7.910156 -21.289062 L 7.824219 -21.820312 L 7.863281 -22.957031 L 7.765625 -23.984375 L 7.316406 -24.753906 L 6.5625 -25.054688 L 5.890625 -25.035156 L 5.183594 -24.910156 L 3.652344 -25.011719 L 2.90625 -24.882812 L 2.171875 -24.578125 L 1.726562 -23.890625 L 1.816406 -23.183594 L 1.839844 -22.332031 L 1.785156 -21.761719 L 2.027344 -16.792969 L 1.941406 -16.078125 L 2.03125 -15.40625 L 2.082031 -9.6875 L 2.371094 -6.851562 L 2.765625 -5.40625 L 3.367188 -4.214844 L 4.21875 -2.957031 L 4.660156 -2.472656 L 5.203125 -2.027344 L 6.359375 -1.3125 L 7.078125 -1.011719 L 7.621094 -0.707031 L 8.988281 -0.140625 L 10.378906 0.105469 L 11.089844 0.0859375 Z M 12.226562 0.128906 "/></g></g></g><g fill="#f48c8c" fill-opacity="1"><g transform="translate(239.24517, 336.248603)"><g><path d="M 4.761719 -0.117188 L 6.496094 -0.269531 L 7.136719 -0.265625 L 7.949219 -0.375 L 8.679688 -0.691406 L 8.964844 -1.453125 L 8.894531 -2.160156 L 8.894531 -2.945312 L 8.761719 -4.253906 L 8.800781 -4.929688 L 8.726562 -5.746094 L 9.015625 -6.398438 L 9.8125 -6.828125 L 10.589844 -6.933594 L 11.34375 -6.828125 L 14.984375 -7.285156 L 18.292969 -8.792969 L 18.804688 -9.242188 L 19.273438 -9.832031 L 19.714844 -10.316406 L 20.148438 -10.871094 L 20.839844 -12.039062 L 21.378906 -13.453125 L 21.449219 -14.238281 L 21.636719 -14.816406 L 21.570312 -17.730469 L 21.398438 -18.324219 L 21.253906 -19.101562 L 20.769531 -20.394531 L 20.039062 -21.570312 L 19.128906 -22.699219 L 17.46875 -24.007812 L 16.261719 -24.734375 L 14.820312 -25.09375 L 14.207031 -25.3125 L 13.496094 -25.28125 L 12.777344 -25.496094 L 11.710938 -25.480469 L 10.574219 -25.390625 L 9.800781 -25.25 L 7.632812 -25.183594 L 6.917969 -25.253906 L 4.726562 -25.007812 L 3.945312 -25.007812 L 3.300781 -25.085938 L 2.5625 -24.90625 L 1.835938 -24.480469 L 1.542969 -23.898438 L 1.78125 -19.605469 L 1.703125 -18.179688 L 1.808594 -17.511719 L 2.203125 -8.320312 L 2.308594 -7.648438 L 2.582031 -1.082031 L 3.003906 -0.425781 L 4.121094 -0.121094 Z M 9.511719 -12.503906 L 8.78125 -12.894531 L 8.433594 -13.484375 L 8.191406 -16.351562 L 8.226562 -17.101562 L 8.160156 -18.554688 L 8.480469 -19.246094 L 9.210938 -19.636719 L 12.90625 -19.703125 L 13.628906 -19.417969 L 14.214844 -19.054688 L 14.699219 -18.617188 L 15.089844 -17.921875 L 15.222656 -17.289062 L 15.34375 -16.296875 L 15.316406 -15.335938 L 15.097656 -14.6875 L 14.804688 -14.105469 L 14.371094 -13.515625 L 13.824219 -13.0625 L 13.265625 -12.859375 L 12.171875 -12.664062 L 10.359375 -12.613281 Z M 9.511719 -12.503906 "/></g></g></g></svg>